<?xml version="1.0" encoding="UTF-8"?>
<svg width="1200pt" height="1200pt" version="1.1" viewBox="0 0 1200 1200" xmlns="http://www.w3.org/2000/svg">
 <path d="m340.27 316.61c-38.98 0-70.988 31.82-70.988 70.801v425c0 38.98 32.004 70.988 70.988 70.988h519.69c38.98 0 70.758-31.82 70.758-70.801v-425c0-38.98-31.773-70.988-70.758-70.988zm118.12 118.17c38.988 0 70.801 31.77 70.801 70.758 0 38.988-31.812 70.988-70.801 70.988s-70.941-31.996-70.941-70.988c0-38.988 31.953-70.758 70.941-70.758zm177.12 23.523h47.281c6.4844 0.078124 11.695 5.3672 11.668 11.855 0.027344 6.4844-5.1836 11.777-11.668 11.855h-47.281c-3.1445 0.011719-6.168-1.2344-8.3945-3.4609-2.2266-2.2266-3.4688-5.2461-3.457-8.3945-0.011718-3.1484 1.2305-6.1719 3.457-8.3945 2.2266-2.2266 5.25-3.4727 8.3945-3.4609zm94.512 0h141.56c3.1484-0.011719 6.168 1.2344 8.3945 3.457 2.2266 2.2266 3.4727 5.25 3.4609 8.3984 0.011719 3.1484-1.2344 6.168-3.4609 8.3945-2.2266 2.2266-5.2461 3.4727-8.3945 3.4609h-141.56c-3.1484 0.011719-6.168-1.2344-8.3945-3.4609-2.2266-2.2266-3.4727-5.2461-3.4609-8.3945-0.011719-3.1484 1.2344-6.1719 3.4609-8.3945 2.2266-2.2266 5.2461-3.4727 8.3945-3.4609zm-94.512 70.941h165.27c6.5-0.027344 11.801 5.2109 11.852 11.715 0.011719 3.1484-1.2305 6.1719-3.457 8.3945-2.2266 2.2266-5.25 3.4727-8.3945 3.4609h-165.27c-3.1445 0.011719-6.168-1.2344-8.3945-3.4609-2.2266-2.2227-3.4688-5.2461-3.457-8.3945 0.050782-6.5039 5.3516-11.742 11.852-11.715zm212.54 0h23.527c6.5039-0.027344 11.801 5.2109 11.855 11.715 0.011719 3.1484-1.2344 6.1719-3.4609 8.3945-2.2266 2.2266-5.2461 3.4727-8.3945 3.4609h-23.523c-3.1562 0.023438-6.1914-1.2148-8.4258-3.4414-2.2383-2.2266-3.4883-5.2578-3.4766-8.4141 0.027344-3.1328 1.293-6.125 3.5234-8.3203 2.2344-2.1992 5.2461-3.418 8.3789-3.3945zm-389.66 70.801c78.117 0 141.56 63.625 141.56 141.74v11.855c0.035156 1.6133-0.26562 3.2109-0.875 4.7031-0.375 0.80469-0.83594 1.5625-1.3828 2.2578-0.54687 0.76562-1.1797 1.4609-1.8906 2.0742-2.125 1.7188-4.7812 2.6523-7.5195 2.6328h-259.73c-6.4805 0.023438-11.773-5.1836-11.852-11.668v-11.855c0-78.117 63.578-141.74 141.7-141.74zm177.12 0h47.281c6.4844 0.078125 11.695 5.3711 11.668 11.855 0.027344 6.4844-5.1836 11.777-11.668 11.855h-47.281c-3.1445 0.011719-6.168-1.2344-8.3945-3.4609-2.2266-2.2227-3.4688-5.2461-3.457-8.3945-0.011718-3.1484 1.2305-6.1719 3.457-8.3945 2.2266-2.2266 5.25-3.4727 8.3945-3.4609zm94.512 0h141.56c3.1484-0.011719 6.168 1.2344 8.3945 3.4609 2.2266 2.2227 3.4727 5.2461 3.4609 8.3945 0.011719 3.1484-1.2344 6.1719-3.4609 8.3945-2.2266 2.2266-5.2461 3.4727-8.3945 3.4609h-141.56c-3.1484 0.011719-6.168-1.2344-8.3945-3.4609-2.2266-2.2227-3.4727-5.2461-3.4609-8.3945-0.011719-3.1484 1.2344-6.1719 3.4609-8.3945 2.2266-2.2266 5.2461-3.4727 8.3945-3.4609zm-94.512 70.758h165.27c3.1445-0.011719 6.168 1.2305 8.3945 3.457 2.2266 2.2266 3.4688 5.25 3.457 8.3945 0.011719 3.1484-1.2305 6.1719-3.457 8.3984-2.2266 2.2266-5.25 3.4688-8.3945 3.457h-165.27c-3.1445 0.011719-6.168-1.2305-8.3945-3.457-2.2266-2.2266-3.4688-5.25-3.457-8.3984-0.011718-3.1445 1.2305-6.168 3.457-8.3945 2.2266-2.2266 5.25-3.4688 8.3945-3.457zm212.54 0h23.527c3.1484-0.011719 6.168 1.2305 8.3945 3.457 2.2266 2.2266 3.4727 5.25 3.4609 8.3945 0.011719 3.1484-1.2344 6.1719-3.4609 8.3984-2.2266 2.2266-5.2461 3.4688-8.3945 3.457h-23.523c-3.1562 0.023437-6.1914-1.2148-8.4258-3.4414-2.2383-2.2266-3.4883-5.2578-3.4766-8.4141-0.011718-3.1523 1.2422-6.1836 3.4766-8.4102 2.2344-2.2266 5.2695-3.4648 8.4258-3.4414zm-212.54 70.988h47.277l0.003906-0.003907c6.4844 0.078126 11.695 5.3711 11.668 11.855-0.074219 6.4141-5.2539 11.594-11.668 11.672h-47.281c-6.4844 0.023438-11.777-5.1875-11.852-11.672-0.011718-3.1484 1.2305-6.168 3.457-8.3945 2.2266-2.2266 5.25-3.4727 8.3945-3.4609zm94.512 0h141.56v-0.003907c3.1484-0.011718 6.168 1.2344 8.3945 3.4609 2.2266 2.2266 3.4727 5.2461 3.4609 8.3945-0.078125 6.4844-5.3711 11.695-11.855 11.672h-141.56c-6.4844 0.023438-11.777-5.1875-11.855-11.672-0.011719-3.1484 1.2344-6.168 3.4609-8.3945 2.2266-2.2266 5.2461-3.4727 8.3945-3.4609z" fill="#36a653"/>
</svg>
