<svg xmlns="http://www.w3.org/2000/svg" xmlns:xlink="http://www.w3.org/1999/xlink" width="60" height="60"  viewBox="0 0 75.98 77.997">
  <defs>
    <linearGradient id="linear-gradient" y1="0.987" x2="1" y2="0.013" gradientUnits="objectBoundingBox">
      <stop offset="0" stop-color="#35a052"/>
      <stop offset="1" stop-color="#2899d2"/>
    </linearGradient>
  </defs>
  <path id="Op_component_1" data-name="Op component 1" d="M3485.791,1861c1.62,1,3.274,1.941,4.851,3q9.413,6.331,18.785,12.721c2.316,1.571,2.682,3.491,1.112,5.785q-1.419,2.075-2.838,4.154a.873.873,0,0,0-.055.208c.448.045.892.063,1.326.137a3.634,3.634,0,0,1,3.157,3.641,2.791,2.791,0,0,0,.9,2.324,4.453,4.453,0,0,1,1.248,3.41q-.01,4.683,0,9.367v.945c.415,0,.787-.009,1.157,0a2.448,2.448,0,0,1,2.511,2.442q.039,5.977,0,11.957a2.432,2.432,0,0,1-2.287,2.424c-.427.041-.861.007-1.384.007v.894q0,4.646,0,9.291a4.975,4.975,0,0,1-5.321,5.288q-30.817,0-61.636,0a4.965,4.965,0,0,1-5.327-5.277q0-18.581-.008-37.164a5.11,5.11,0,0,1,2.554-4.708.921.921,0,0,0,.342-.658c.124-2.93,1.513-4.262,4.483-4.264h2.161c.141-1.364.284-2.688.416-4.015.421-4.267.82-8.536,1.266-12.8a3.574,3.574,0,0,1,4.091-3.3c3.278.282,6.55.632,9.824.956,2.335.23,4.669.468,7,.694.908.088,1.417.524,1.37,1.206-.05.726-.66,1.1-1.578,1.008q-8.3-.818-16.6-1.617c-1.286-.123-1.759.244-1.889,1.492-.457,4.416-.892,8.835-1.332,13.253-.243,2.423-.478,4.847-.719,7.265,1.163.427,1.388.286,1.5-.868q.6-6.137,1.218-12.271a2.654,2.654,0,0,1,1.737-2.388,6.4,6.4,0,0,0,2.987-2.4,2.686,2.686,0,0,1,2.7-1.216c2.69.277,5.382.527,8.072.794.9.088,1.4.569,1.31,1.25s-.633,1.031-1.558.941c-2.59-.252-5.179-.5-7.765-.773a1.013,1.013,0,0,0-1.086.483,7.515,7.515,0,0,1-3.376,2.773,1.223,1.223,0,0,0-.846,1.18c-.4,4.167-.81,8.332-1.23,12.6.277.021.541.055.8.056,1.276.005,2.553-.03,3.828.016a1.34,1.34,0,0,0,1.3-.687q9.286-13.6,18.592-27.186a5.306,5.306,0,0,1,2.853-2.37Zm-41.5,40.531v27.232h.8c1.633,0,3.267-.006,4.9,0,.891,0,1.353.387,1.355,1.09s-.453,1.1-1.343,1.1c-1.634.01-3.267,0-4.9,0h-.827c0,1.262-.063,2.405.018,3.539a2.552,2.552,0,0,0,2.2,2.217,7.278,7.278,0,0,0,.993.044q30.629,0,61.258,0a8.372,8.372,0,0,0,.918-.032,2.512,2.512,0,0,0,2.273-2.053c.121-1.2.028-2.417.028-3.716H3458.2a6.506,6.506,0,0,1-.994-.032,1.083,1.083,0,0,1-.01-2.133,5.327,5.327,0,0,1,.917-.031h53.86v-5.218h-.939c-3.14,0-6.28.028-9.418-.006a8.419,8.419,0,1,1-.465-16.832c3.267-.044,6.534-.014,9.8-.017h1.022v-5.158Zm-.009-2.33h67.742c0-.853,0-1.661,0-2.469,0-2.308-.981-3.279-3.305-3.279h-61.186c-.255,0-.512-.011-.766.008a2.617,2.617,0,0,0-2.465,2.22C3444.2,1896.833,3444.278,1898,3444.278,1899.2Zm49.417-7.976c1.166,0,2.311.02,3.453-.019a.92.92,0,0,0,.573-.407c1.305-1.877,2.608-3.76,3.866-5.669a1.125,1.125,0,0,0,.077-.941,8.4,8.4,0,0,1-.875-4.575.962.962,0,0,0-.51-1q-5.546-3.733-11.066-7.5a1.017,1.017,0,0,0-1.184-.079,7.685,7.685,0,0,1-4.3.8,1.177,1.177,0,0,0-1.252.6q-6.182,9.075-12.4,18.124c-.124.179-.222.376-.39.665,1.812,0,3.516.016,5.219-.029.158,0,.409-.389.442-.622a9.166,9.166,0,0,1,11.459-7.549C3490.871,1884.157,3493.052,1886.994,3493.7,1891.224Zm14.336,30.1v0c2.244,0,4.488-.026,6.731.015.711.013.971-.16.963-.916q-.057-5.327,0-10.653c.007-.725-.242-.889-.922-.885-4.334.025-8.67.007-13,.02a8.061,8.061,0,0,0-1.747.16,6.194,6.194,0,0,0,1.324,12.248C3503.594,1921.344,3505.813,1921.321,3508.031,1921.321Zm-7.823-30.184a1.908,1.908,0,0,0,2.356-.887c2.014-3.083,4.141-6.094,6.222-9.136.72-1.054.6-1.726-.44-2.433q-11.093-7.525-22.192-15.04a1.465,1.465,0,0,0-2.382.478q-9.073,13.234-18.141,26.473c-.117.171-.209.359-.323.556a1.9,1.9,0,0,0,2.35-.953c1.319-2.11,2.788-4.126,4.2-6.179q4.456-6.509,8.912-13.021a2.724,2.724,0,0,1,2.7-1.375,6.6,6.6,0,0,0,3.852-.7,2.67,2.67,0,0,1,2.89.189q5.786,3.923,11.571,7.843a2.954,2.954,0,0,1,1.26,2.679,8.215,8.215,0,0,0,.552,3.24,3.446,3.446,0,0,1-.364,3.889C3502.177,1888.156,3501.239,1889.631,3500.208,1891.137Zm-8.889.051c-.031-3.426-3.406-6.366-7.109-6.262-3.456.1-6.722,3.177-6.6,6.262Zm18.557.018c.09-1.011-.15-1.718-.866-1.855a18.685,18.685,0,0,0-2.945-.154c-.075,0-.171.1-.225.181-.4.571-.785,1.149-1.245,1.827Zm-62.692.019c1.205,0,2.368.014,3.529-.018a.6.6,0,0,0,.423-.383c.093-.514.108-1.043.161-1.654-.825,0-1.607-.008-2.388,0C3447.635,1889.186,3447.087,1889.8,3447.183,1891.224Z" transform="translate(-3441.98 -1860.999)" fill="url(#linear-gradient)"/>
</svg>
