<svg xmlns="http://www.w3.org/2000/svg" xmlns:xlink="http://www.w3.org/1999/xlink"  width="60" height="60" padding="10px"  viewBox="0 0 75.01 75.006">
  <defs>
    <linearGradient id="linear-gradient" y1="1" x2="1" gradientUnits="objectBoundingBox">
      <stop offset="0" stop-color="#35a052"/>
      <stop offset="1" stop-color="#2899d2"/>
    </linearGradient>
  </defs>
  <path id="Icon_1" data-name="Icon 1" d="M2740.07,1932.928h-59.216c-1.585,0-1.876-.3-1.876-1.907q0-3.028,0-6.053c0-1.358.349-1.714,1.68-1.724.222,0,.443,0,.742,0v-5.489c0-1.441.335-1.774,1.782-1.775h3.064v-.9c0-6.153-.127-12.311.028-18.461.26-10.283,5.083-17.812,14.43-22.118,13.723-6.322,30.085,1.922,33.362,16.679a28.487,28.487,0,0,1,.616,5.77c.078,6.026.028,12.055.028,18.084v.947c1.162,0,2.241,0,3.321,0s1.52.422,1.523,1.5c.008,1.888,0,3.776,0,5.763.416,0,.785-.014,1.153,0a1.18,1.18,0,0,1,1.261,1.223q.032,3.632,0,7.263a1.174,1.174,0,0,1-1.219,1.19c-.092.007-.185.009-.277.009C2740.339,1932.932,2740.2,1932.928,2740.07,1932.928Zm-58.632-2.471H2739.5V1925.7h-58.063Zm2.427-7.258h53.219v-4.768h-53.219ZM2706.4,1875.2a21.755,21.755,0,0,0-17.732,21.579c-.012,6.128,0,12.257,0,18.386v.771h43.619v-.644c0-6.23.014-12.46-.014-18.688a24.1,24.1,0,0,0-.281-3.462,21.854,21.854,0,0,0-21.462-18.352A20.96,20.96,0,0,0,2706.4,1875.2Zm32.885,21.365a.91.91,0,0,1-.91-.91v-.53a.91.91,0,0,1,.91-.91h7.791a.91.91,0,0,1,.91.91v.53a.91.91,0,0,1-.91.91Zm-65.395,0a.914.914,0,0,1-.915-.913v-.5a.913.913,0,0,1,.915-.913h7.768a.914.914,0,0,1,.914.913v.5a.914.914,0,0,1-.914.913Zm51.94-2.092c-1.065-5.473-3.693-9.477-7.813-11.9a15.271,15.271,0,0,0-6-2.049,1.415,1.415,0,0,1,.18-2.823,17.813,17.813,0,0,1,7.129,2.362c3.381,1.956,7.738,5.951,9.28,13.873a1.416,1.416,0,0,1-2.78.54Zm5.364-19.563-.189-.192a.914.914,0,0,1,0-1.291q2.343-2.345,4.7-4.7a.915.915,0,0,1,1.3,0l.189.193a.913.913,0,0,1,0,1.286q-2.342,2.344-4.7,4.7a.919.919,0,0,1-1.3,0Zm-42.719-.084q-2.31-2.307-4.674-4.671a.916.916,0,0,1,.036-1.329l.014-.012a.914.914,0,0,1,1.256.033c1.524,1.522,3.092,3.087,4.677,4.668a.913.913,0,0,1-.017,1.309l-.018.018a.916.916,0,0,1-1.275-.017Zm21.742-8.523a.914.914,0,0,1-.915-.913v-6.552a.914.914,0,0,1,.915-.914h.5a.914.914,0,0,1,.915.914v6.552a.914.914,0,0,1-.915.913Z" transform="translate(-2672.98 -1857.927)" fill="url(#linear-gradient)"/>
</svg>
