<svg xmlns="http://www.w3.org/2000/svg" xmlns:xlink="http://www.w3.org/1999/xlink" width="60" height="60"  viewBox="0 0 42.003 42.007">
  <defs>
    <linearGradient id="linear-gradient" y1="1" x2="1" gradientUnits="objectBoundingBox">
      <stop offset="0" stop-color="#35a052"/>
      <stop offset="1" stop-color="#2899d2"/>
    </linearGradient>
  </defs>
  <path id="Shape_7" data-name="Shape 7" d="M3084.378,2083.983A1.382,1.382,0,0,1,3083,2082.6v-9.791a1.382,1.382,0,0,1,2.765,0v5.35a.39.39,0,0,0,.665.276c2.971-2.961,11.273-11.244,14.208-14.167a1.4,1.4,0,0,1,1.98,0l.061.06a1.4,1.4,0,0,1,0,1.981c-2.92,2.924-11.217,11.219-14.207,14.214a.39.39,0,0,0,.276.664h5.415a1.381,1.381,0,0,1,1.381,1.381v.031a1.381,1.381,0,0,1-1.382,1.382Zm21-22.294-.06-.06a1.4,1.4,0,0,1,0-1.982c2.919-2.923,11.217-11.219,14.206-14.213a.389.389,0,0,0-.274-.664h-5.416a1.381,1.381,0,0,1-1.381-1.381v-.032a1.382,1.382,0,0,1,1.381-1.38h9.783a1.381,1.381,0,0,1,1.383,1.38v9.792a1.382,1.382,0,0,1-2.765,0V2047.8a.389.389,0,0,0-.664-.275c-2.974,2.961-11.273,11.244-14.208,14.167a1.4,1.4,0,0,1-1.981,0Z" transform="translate(-3082.996 -2041.977)" fill="url(#linear-gradient)"/>
</svg>
