<svg xmlns="http://www.w3.org/2000/svg" xmlns:xlink="http://www.w3.org/1999/xlink" width="60" height="60"  viewBox="0 0 78.114 77.766">
  <defs>
    <linearGradient id="linear-gradient" x1="0.002" y1="1" x2="0.998" gradientUnits="objectBoundingBox">
      <stop offset="0" stop-color="#35a052"/>
      <stop offset="1" stop-color="#2899d2"/>
    </linearGradient>
  </defs>
  <path id="Op_component_1" data-name="Op component 1" d="M3064.993,1929.933c.127-.536.24-1.075.378-1.608a12.11,12.11,0,0,1,3.328-5.612q11.369-11.289,22.723-22.594a15.3,15.3,0,0,0,4.46-8.208,24.288,24.288,0,0,0,.342-3.7,23.2,23.2,0,0,1,17.152-22.108,22.218,22.218,0,0,1,9.816-.585,3.59,3.59,0,0,1,2.147,5.9c-.4.458-.845.875-1.278,1.3-3.9,3.883-7.792,7.779-11.718,11.641a2.73,2.73,0,0,0-.7,3.358c.726,1.669,1.4,3.363,2.068,5.054a2.9,2.9,0,0,0,1.711,1.719q2.621,1.033,5.219,2.118a2.643,2.643,0,0,0,3.186-.662c1.165-1.2,2.365-2.371,3.559-3.547.683-.675,1.342-.736,1.858-.193.483.51.409,1.148-.234,1.794-1.255,1.258-2.5,2.524-3.78,3.755a4.616,4.616,0,0,1-5.2,1.045c-1.892-.734-3.765-1.516-5.644-2.284a4.767,4.767,0,0,1-2.711-2.725c-.747-1.825-1.518-3.641-2.246-5.473a4.629,4.629,0,0,1,1.11-5.364q6.226-6.205,12.463-12.4c.127-.125.248-.255.38-.374a1.4,1.4,0,0,0,.485-1.568,1.351,1.351,0,0,0-1.369-.911,40,40,0,0,0-5.7.027,20.817,20.817,0,0,0-17.62,15.709,28.983,28.983,0,0,0-.663,5.706,18.163,18.163,0,0,1-5.565,12.671c-1.811,1.778-3.6,3.576-5.4,5.366q-8.66,8.617-17.318,17.236a9.43,9.43,0,0,0,4.478,16.033,9.173,9.173,0,0,0,8.145-1.944,14.636,14.636,0,0,0,1.112-1.04c7.34-7.3,14.714-14.565,22-21.917a19.245,19.245,0,0,1,13.814-5.906c8.71-.21,15.082-4.313,19.009-12.036a20.042,20.042,0,0,0,1.881-11.817,1.462,1.462,0,0,0-.908-1.376,1.481,1.481,0,0,0-1.636.511c-1.534,1.551-3.088,3.083-4.635,4.621-.162.162-.319.329-.493.476a1.163,1.163,0,0,1-1.589.02,1.113,1.113,0,0,1,0-1.631c1.841-1.854,3.639-3.758,5.582-5.5a3.538,3.538,0,0,1,5.846,2.168,23.433,23.433,0,0,1-23.314,26.879,16.006,16.006,0,0,0-11.656,4.94c-7.386,7.4-14.827,14.741-22.217,22.134a12.436,12.436,0,0,1-7.336,3.844.677.677,0,0,0-.2.107h-2.6a3.625,3.625,0,0,0-.43-.13,11.615,11.615,0,0,1-9.721-8.665c-.166-.549-.254-1.121-.379-1.682Z" transform="translate(-3064.993 -1865.228)" fill="url(#linear-gradient)"/>
</svg>
