<svg xmlns="http://www.w3.org/2000/svg" xmlns:xlink="http://www.w3.org/1999/xlink" width="60" height="60"  viewBox="0 0 55.97 82.993">
  <defs>
    <linearGradient id="linear-gradient" y1="0.837" x2="1" y2="0.163" gradientUnits="objectBoundingBox">
      <stop offset="0" stop-color="#35a052"/>
      <stop offset="1" stop-color="#2899d2"/>
    </linearGradient>
  </defs>
  <path id="Shape_8" data-name="Shape 8" d="M2713.453,2015.994c.677.155,1.356.3,2.029.468a15,15,0,0,1,11.422,14.281c.036,1.4-.01,2.809.03,4.213a2.075,2.075,0,0,0,.319,1.037,5.15,5.15,0,0,1-3.384,8.016.729.729,0,0,0-.7.708,11.373,11.373,0,0,1-3.694,6.491,1.74,1.74,0,0,0-.479,1.083c-.056.885-.3,1.989.115,2.606s1.543.755,2.369,1.075q5.577,2.17,11.161,4.323a10.736,10.736,0,0,1,7.316,10.495c.038,2.511.01,5.023,0,7.535,0,.294.034.682-.128.86-.3.33-.756.764-1.109.734a1.91,1.91,0,0,1-1.1-.856c-.172-.242-.086-.679-.089-1.029-.024-2.727.054-5.459-.089-8.18a7.764,7.764,0,0,0-4.922-6.96c-2.725-1.227-5.565-2.195-8.358-3.274a1.523,1.523,0,0,0-.3-.033c-.753,1.5-1.513,3.012-2.271,4.527-.4.8-.792,1.595-1.19,2.391-1.011,2.031-1.988,2.332-3.956,1.186a2.684,2.684,0,0,0-.868,2.48c1.2,6.746,2.314,13.507,3.466,20.262a2.409,2.409,0,0,1-.7,2.141c-1.165,1.267-2.316,2.548-3.557,3.917h13.092v-.963q0-11.1,0-22.2a3.99,3.99,0,0,1,.088-1.042,1.087,1.087,0,0,1,1.211-.857,1.125,1.125,0,0,1,1.1,1.007,4.851,4.851,0,0,1,.031.889q0,11.06,0,22.121v1.05c.254.019.483.052.713.052q2.635.006,5.267,0c1.1,0,1.24-.143,1.24-1.276q0-4.9,0-9.8c0-.216,0-.433,0-.649.023-1.027.458-1.579,1.227-1.564.745.015,1.194.548,1.2,1.525.011,3.619.03,7.239-.007,10.858a3.114,3.114,0,0,1-3.432,3.339q-15.837.007-31.678,0c-.135,0-.27.006-.405-.005a1.205,1.205,0,0,1-1.239-1.223,1.183,1.183,0,0,1,1.265-1.191c1.27-.03,2.539-.01,3.808-.011h.961c-1.239-1.369-2.334-2.619-3.476-3.824a2.836,2.836,0,0,1-.774-2.656c1.157-6.644,2.244-13.3,3.418-19.942a2.788,2.788,0,0,0-.867-2.456c-.162.1-.3.177-.436.261a2.1,2.1,0,0,1-3.247-.895c-1.134-2.206-2.226-4.435-3.338-6.653-.13-.263-.27-.521-.438-.847-.372.135-.721.256-1.064.389q-3.4,1.311-6.788,2.627a8.352,8.352,0,0,0-5.763,8.237c-.037,8.212-.013,16.423-.01,24.633,0,.953.184,1.12,1.148,1.122,1.992,0,3.985,0,6.071,0v-1.015q0-11.061,0-22.121c0-.271-.012-.542.011-.81a1.183,1.183,0,0,1,1.191-1.182,1.16,1.16,0,0,1,1.2,1.086,4.628,4.628,0,0,1,.028.807q0,11.1,0,22.2v1.031c.825,0,1.574-.009,2.323,0,.949.014,1.485.475,1.469,1.24-.016.731-.537,1.183-1.442,1.184-3.754.009-7.508.021-11.262,0a3.042,3.042,0,0,1-3.129-2.878,7.655,7.655,0,0,1-.042-.888c0-8.05.019-16.1-.01-24.147a10.79,10.79,0,0,1,5.065-9.646,10.615,10.615,0,0,1,1.945-.982q6.625-2.6,13.271-5.145a1.012,1.012,0,0,0,.733-1.04,4.035,4.035,0,0,0-1.519-3.843,9.479,9.479,0,0,1-2.97-5.714c-.083-.453-.251-.6-.7-.68a5.1,5.1,0,0,1-3.331-7.945,2.146,2.146,0,0,0,.274-1.052,62.443,62.443,0,0,1,.3-6.46,14.884,14.884,0,0,1,12.54-12.382,4.829,4.829,0,0,0,.6-.174Zm4.485,14.521a26.5,26.5,0,0,1-7.3,3.242,25.579,25.579,0,0,1-7.881.871c0,2.524-.011,4.95.008,7.373a14.464,14.464,0,0,0,.147,2.094,9,9,0,0,0,9.624,7.431,8.84,8.84,0,0,0,8.379-8.419c.094-2.967.037-5.938.031-8.906a1.063,1.063,0,0,0-.22-.657C2719.83,2032.539,2718.9,2031.56,2717.938,2030.515Zm-18.6,3.611c.424-.216.977-.31,1.145-.615a2.571,2.571,0,0,1,2.47-1.337,44.752,44.752,0,0,0,5.473-.429,21.732,21.732,0,0,0,8-3.149c.737-.459,1.681-.964,2.331-.369a38.518,38.518,0,0,1,4.487,4.816c.379.491.532.9,1.23.871,0-1.125.024-2.229,0-3.333a12.68,12.68,0,0,0-11.872-12.136C2705.392,2018.06,2698.024,2023.844,2699.335,2034.126Zm12.655,61.822c1.355-1.49,2.617-2.963,3.979-4.338a1.881,1.881,0,0,0,.513-1.872c-.867-4.995-1.7-9.994-2.552-14.992-.265-1.56-.538-3.119-.81-4.686h-2.241c-.062.3-.129.582-.178.869-.247,1.436-.488,2.871-.731,4.307q-1.265,7.5-2.52,15a1.123,1.123,0,0,0,.109.811C2709,2092.68,2710.475,2094.282,2711.99,2095.948Zm-4.483-42.774a3.739,3.739,0,0,0,.9,3.5c1.265,1.345,2.356,2.854,3.584,4.37,1.2-1.486,2.254-2.965,3.5-4.257a3.9,3.9,0,0,0,.983-3.691A12.3,12.3,0,0,1,2707.507,2053.174Zm10.533,12.618c1.211-2.426,2.38-4.769,3.573-7.16-1.109-.427-2.107-.825-3.117-1.186a.6.6,0,0,0-.534.123c-1.408,1.7-2.791,3.421-4.211,5.174Zm-12.1,0,4.287-3.05c-1.428-1.764-2.8-3.463-4.183-5.144a.6.6,0,0,0-.523-.167c-1.033.369-2.053.779-3.15,1.2C2703.561,2061.031,2704.722,2063.357,2705.937,2065.794Zm17.5-24.256a2.619,2.619,0,0,0,0-5.2Zm-9.1,24.612c-.656-.47-1.345-.978-2.052-1.457a.563.563,0,0,0-.5-.047c-.749.5-1.474,1.038-2.226,1.575.517.662.676,1.518,1.749,1.4C2712.469,2067.487,2713.875,2068.026,2714.328,2066.15Zm-14.027-29.78a2.661,2.661,0,0,0-2.271,2.96,2.423,2.423,0,0,0,2.271,2.184Z" transform="translate(-2684.011 -2015.994)" fill="url(#linear-gradient)"/>
</svg>
