<svg xmlns="http://www.w3.org/2000/svg" xmlns:xlink="http://www.w3.org/1999/xlink" width="60" height="60"  viewBox="0 0 76.835 77.83">
  <defs>
    <linearGradient id="linear-gradient" y1="0.994" x2="1" y2="0.006" gradientUnits="objectBoundingBox">
      <stop offset="0" stop-color="#35a052"/>
      <stop offset="1" stop-color="#2899d2"/>
    </linearGradient>
  </defs>
  <path id="Shape_6" data-name="Shape 6" d="M3485.359,2075.432c-2.062.876-4.016,1.687-5.948,2.55a.963.963,0,0,0-.433.722c-.039,1.528-.012,3.057-.022,4.586-.009,1.391-.508,1.89-1.878,1.891q-5.691,0-11.38,0c-1.381,0-1.861-.49-1.864-1.889,0-1.529-.02-3.059.01-4.587.01-.467-.156-.642-.584-.8-1.32-.5-2.625-1.048-3.913-1.63a.68.68,0,0,0-.914.166c-1.1,1.123-2.227,2.224-3.354,3.323a1.524,1.524,0,0,1-2.493-.024q-4.091-4.094-8.17-8.2a1.592,1.592,0,0,1,.03-2.625c1.2-1.206,2.406-2.4,3.568-3.561-.651-1.668-1.265-3.274-1.921-4.861-.059-.147-.4-.247-.606-.25-1.542-.021-3.084-.007-4.627-.013-1.3,0-1.864-.551-1.866-1.853q-.012-5.809,0-11.619c0-1.261.563-1.806,1.821-1.811,1.568-.007,3.136-.016,4.7.009a.632.632,0,0,0,.7-.5c.522-1.35,1.059-2.693,1.646-4.015a.67.67,0,0,0-.15-.911c-1.112-1.077-2.2-2.184-3.283-3.287a1.6,1.6,0,0,1,0-2.63q4.045-4.087,8.1-8.161a1.579,1.579,0,0,1,2.617-.019c1.084,1.07,2.168,2.141,3.224,3.238a.76.76,0,0,0,1.035.2c1.236-.574,2.492-1.111,3.77-1.581a.806.806,0,0,0,.636-.927c-.032-1.528-.02-3.058-.01-4.586.01-1.253.512-1.784,1.742-1.788q5.84-.018,11.683,0c1.25,0,1.764.559,1.77,1.854.008,1.529.022,3.058-.01,4.586-.009.5.167.68.625.851,1.3.486,2.577,1.037,3.842,1.608a.67.67,0,0,0,.914-.145c1.07-1.119,2.17-2.21,3.266-3.3.927-.926,1.631-.938,2.543-.025q4.085,4.1,8.154,8.216a1.606,1.606,0,0,1-.028,2.631c-1.194,1.21-2.4,2.413-3.562,3.585.638,1.639,1.248,3.245,1.9,4.832.061.149.394.26.6.263,1.567.022,3.135.006,4.7.014,1.21.005,1.786.561,1.789,1.764q.014,5.886,0,11.772c0,1.21-.57,1.763-1.78,1.769-1.543.008-3.085.015-4.628-.005a.728.728,0,0,0-.827.544c-.658,1.649-1.37,3.277-2.108,4.89a.66.66,0,0,0,.13.91c2.47,2.449,4.915,4.922,7.384,7.371a1.507,1.507,0,0,0,.78.38c2.145.344,4.291.69,6.445.971a4.6,4.6,0,0,1,2.811,1.514,14.962,14.962,0,0,1,3.5,7.173,11.883,11.883,0,0,1-.3,6.92,6.627,6.627,0,0,1-.552,1.168,1.478,1.478,0,0,1-2.65,0c-.963-1.525-1.885-3.076-2.878-4.581-1.053-1.6-2.054-1.808-3.732-.85a3.66,3.66,0,0,0-2.185,2.743,2.784,2.784,0,0,0,.308,1.51c.769,1.432,1.63,2.814,2.448,4.219.857,1.471.231,2.474-1.428,2.63a6.464,6.464,0,0,1-5.375-1.8c-1.473-1.391-3.094-2.619-4.624-3.948a3.46,3.46,0,0,1-1.211-2.906c.056-1.754-.042-3.514-.105-5.271a1.312,1.312,0,0,0-.289-.811c-2.487-2.538-5-5.055-7.5-7.575C3485.323,2075.392,3485.249,2075.362,3485.359,2075.432Zm-9.56-9.515.212-.286c-.6-.505-1.192-1.021-1.807-1.506a1.12,1.12,0,0,0-.606-.225c-1.819-.073-3.644-.231-5.456-.144a3.2,3.2,0,0,1-2.8-1.165c-1.347-1.586-2.6-3.255-4.005-4.788a6.441,6.441,0,0,1-1.726-5.213c.148-1.728,1.161-2.4,2.634-1.523,1.371.814,2.758,1.6,4.1,2.465a2.206,2.206,0,0,0,2.688-.073,6.758,6.758,0,0,0,1.611-1.787c1.024-1.614.782-2.686-.8-3.752-1.47-.989-2.983-1.912-4.485-2.853a1.531,1.531,0,0,1,.069-2.83,8.128,8.128,0,0,1,1.18-.512,11.809,11.809,0,0,1,6.431-.3,15.49,15.49,0,0,1,6.776,3.07,5.138,5.138,0,0,1,2.091,3.173c.282,1.862.644,3.723.751,5.6.09,1.577,1.038,2.43,2.123,3.394a14.015,14.015,0,0,0-2.346-12.644,27.363,27.363,0,0,0-2.132-2.273,1.487,1.487,0,0,1-.141-2.067,1.465,1.465,0,0,1,2.1-.18c.143.105.273.228.4.346a17.072,17.072,0,0,1,4.684,18.468,1.029,1.029,0,0,0,.3,1.309c.822.755,1.6,1.564,2.367,2.372.605.634,1.178,1.3,1.765,1.955l.351-.091c.62-1.681,1.282-3.349,1.85-5.048.435-1.3.749-1.608,2.091-1.61q2.3,0,4.609,0v-9.233c-1.631,0-3.2.007-4.766,0-1.147-.006-1.494-.377-1.9-1.468-.707-1.9-1.466-3.784-2.306-5.628-.55-1.206-.58-1.621.366-2.563,1.111-1.1,2.238-2.19,3.278-3.2l-6.58-6.64c-1.106,1.125-2.252,2.309-3.416,3.474a1.471,1.471,0,0,1-2.054.287,24.823,24.823,0,0,0-6.068-2.538,1.479,1.479,0,0,1-1.254-1.652c-.011-.866,0-1.733,0-2.6v-2.4h-9.159c0,1.618,0,3.17,0,4.721,0,1.273-.344,1.6-1.5,2.036-1.885.709-3.753,1.479-5.578,2.332-1.206.563-1.608.594-2.545-.351-1.1-1.111-2.2-2.225-3.187-3.219l-6.56,6.543c1.072,1.065,2.19,2.169,3.3,3.284a1.693,1.693,0,0,1,.358,2.32c-.859,1.946-1.661,3.919-2.42,5.907-.36.943-.752,1.348-1.757,1.36-1.365.016-2.731,0-4.1.006-.264,0-.53.022-.774.034v9.2c1.618,0,3.183,0,4.749,0,1.151,0,1.5.369,1.9,1.457.71,1.9,1.467,3.784,2.325,5.619.6,1.282.628,1.7-.361,2.695-1.083,1.092-2.169,2.181-3.159,3.174,2.193,2.231,4.318,4.395,6.475,6.588,1.111-1.124,2.246-2.284,3.4-3.431a1.539,1.539,0,0,1,2.121-.306,24.249,24.249,0,0,0,5.947,2.435,1.53,1.53,0,0,1,1.32,1.764c.008,1.4,0,2.8,0,4.2,0,.243.029.485.044.731h9.175c0-1.691-.005-3.321,0-4.95a1.553,1.553,0,0,1,1.276-1.731c.265-.083.543-.128.8-.231,1.655-.658,3.3-1.328,5.028-2.022-1.586-1.618-3.017-3.057-4.42-4.523a.8.8,0,0,0-1.046-.209,16.249,16.249,0,0,1-9.673.861,17.116,17.116,0,0,1,3.2-33.85,1.507,1.507,0,0,1,1.7,1.449c.032.926-.6,1.517-1.661,1.582-.68.041-1.364.076-2.038.171a14.1,14.1,0,0,0,.854,27.923A12.357,12.357,0,0,0,3475.8,2065.917Zm37.074,21.464c-.053-.649-.066-1.3-.165-1.943a13.022,13.022,0,0,0-2.522-6.135,2.9,2.9,0,0,0-2.038-1.167q-3.272-.4-6.527-.927a2.534,2.534,0,0,1-1.319-.629q-9.9-9.862-19.738-19.781a2.3,2.3,0,0,1-.608-1.18c-.35-2.211-.665-4.429-.931-6.653a2.92,2.92,0,0,0-1.124-2.066,12.631,12.631,0,0,0-5.263-2.408c-.892-.2-1.815-.253-2.725-.373-.016.065-.035.13-.051.2.695.485,1.413.937,2.077,1.461a5.006,5.006,0,0,1,2.226,4.587,7.426,7.426,0,0,1-3.325,5.5,5.14,5.14,0,0,1-6.046.229c-.481-.3-.98-.579-1.471-.867a1.429,1.429,0,0,0,.322.684c1.176,1.432,2.365,2.853,3.529,4.3a1.38,1.38,0,0,0,1.166.534c2.048.046,4.095.109,6.137.25a2.345,2.345,0,0,1,1.384.63q9.83,9.821,19.59,19.714a2.8,2.8,0,0,1,.681,1.608,43.051,43.051,0,0,1,.2,4.96,3.186,3.186,0,0,0,1.359,2.908c1.4,1.053,2.716,2.226,4.068,3.348l.165-.13c-1.1-1.677-2.165-3.357-1.639-5.51a7.035,7.035,0,0,1,3.6-4.5,5.711,5.711,0,0,1,4.128-.884C3510.4,2083.635,3511.5,2085.569,3512.874,2087.381Z" transform="translate(-3438.986 -2019.966)" fill="url(#linear-gradient)"/>
</svg>
