<svg xmlns="http://www.w3.org/2000/svg" xmlns:xlink="http://www.w3.org/1999/xlink" width="50" height="50" viewBox="0 0 86.997 64.002">
  <defs>
    <linearGradient id="linear-gradient" x1="0.132" y1="1" x2="0.868" gradientUnits="objectBoundingBox">
      <stop offset="0" stop-color="#35a052"/>
      <stop offset="1" stop-color="#2899d2"/>
    </linearGradient>
  </defs>
  <path id="Shape_9" data-name="Shape 9" d="M7349.56,2326.985c-1.222,0-1.6-.4-1.606-1.644,0-.795-.021-1.59,0-2.383a3.885,3.885,0,0,1,3.817-3.8c.731-.021,1.463,0,2.25,0v-35.051c-.665,0-1.331.013-2,0a1.207,1.207,0,0,1-1.353-1.371q-.023-2.511,0-5.023c.009-1.03.448-1.431,1.56-1.431q6.925-.008,13.847,0h6.413v-5.448h-3.1c-1.476,0-1.766-.3-1.767-1.8s-.008-3.008,0-4.512c.006-1.094.4-1.513,1.469-1.515q22.34-.005,44.683,0c1.067,0,1.465.422,1.472,1.511q.012,2.427,0,4.853c-.009,1.077-.4,1.454-1.507,1.463s-2.2,0-3.352,0v5.448h20c1.506,0,1.823.324,1.823,1.858,0,1.5.007,3.008,0,4.512-.007,1.028-.423,1.442-1.438,1.459-.618.011-1.235,0-1.911,0v35.07c2.642-.267,5.066.041,6.072,3.055v3.917a1.662,1.662,0,0,1-1.622.849Q7391.44,2326.979,7349.56,2326.985Zm.771-3.262v.819h82.175c.218-2.129.024-3.04-2.59-3.03-13.729.056-27.458.026-41.188.026h-36.179C7350.76,2321.539,7350.325,2321.968,7350.331,2323.724Zm60.073-4.655h15.954v-34.912H7410.4Zm-23.016,0h8.121v-9.21h-8.121Zm8.926-11.643c1.25,0,1.622.366,1.625,1.608.005,3.036,0,6.072,0,9.106,0,.3.028.6.043.922h9.914v-48.2h-32.9v48.191h9.957v-.976q0-4.509,0-9.02c0-1.269.358-1.633,1.6-1.635l4.127,0Zm-39.791,11.615H7372.5v-34.884h-15.974Zm53.864-37.367h19.387v-2.95h-19.387Zm-57.284,0h19.4v-2.935h-19.4Zm16.944-13.274h42.762v-2.959h-42.762Zm44.792,47.646c-.9-.007-1.448-.511-1.427-1.226.021-.687.545-1.133,1.405-1.146,1.216-.015,2.431,0,3.646,0,1.157,0,2.315-.011,3.474,0,.877.011,1.392.433,1.424,1.123.035.717-.511,1.241-1.4,1.247q-1.78.015-3.56.015T7414.839,2316.04Zm-53.927,0a1.229,1.229,0,0,1-1.385-1.179c-.011-.717.53-1.179,1.442-1.19,1.187-.015,2.374,0,3.56,0s2.374-.013,3.561.006c.851.011,1.381.476,1.388,1.161a1.228,1.228,0,0,1-1.36,1.207q-1.758.015-3.517.015Q7362.758,2316.053,7360.913,2316.038Zm3.584-5.309c-1.187,0-2.372.011-3.559-.006-.871-.013-1.384-.446-1.411-1.14-.024-.715.519-1.22,1.418-1.228q3.56-.031,7.12,0c.9.008,1.442.524,1.411,1.237-.032.69-.547,1.12-1.42,1.131-.509.007-1.017.009-1.526.009C7365.853,2310.733,7365.175,2310.729,7364.5,2310.729Zm50.318-.006c-.864-.013-1.383-.457-1.4-1.149a1.216,1.216,0,0,1,1.343-1.217q3.645-.034,7.289,0a1.189,1.189,0,1,1-.026,2.36c-1.215.021-2.429.006-3.646.006-.693,0-1.388.005-2.083.005Q7415.553,2310.733,7414.815,2310.724Zm.028-5.3c-.9-.011-1.448-.487-1.427-1.205.019-.69.535-1.157,1.4-1.164q3.56-.028,7.12,0c.9.006,1.448.506,1.431,1.222s-.556,1.14-1.485,1.149c-1.161.013-2.318,0-3.477,0-.678,0-1.357,0-2.035,0C7415.859,2305.438,7415.351,2305.436,7414.843,2305.428Zm-50.357,0c-1.187,0-2.375.013-3.561,0-.86-.013-1.382-.461-1.4-1.151a1.218,1.218,0,0,1,1.345-1.217q3.647-.034,7.291,0a1.19,1.19,0,1,1-.034,2.364c-.495.008-.99.011-1.485.011C7365.925,2305.437,7365.206,2305.432,7364.486,2305.432Zm19.361-1.077c-1.471,0-2.941.009-4.413,0-1.026-.008-1.435-.414-1.442-1.446q-.017-2.634,0-5.271c.007-.937.409-1.388,1.331-1.4q4.54-.037,9.08,0a1.2,1.2,0,0,1,1.358,1.37q.022,2.681,0,5.359c-.008.965-.435,1.377-1.417,1.386q-.9.009-1.8.008C7385.646,2304.359,7384.747,2304.355,7383.847,2304.355Zm-3.426-2.448h6.9v-3.263h-6.9Zm18.558,2.448c-1.47,0-2.942.009-4.413,0-1.022-.008-1.433-.422-1.439-1.45q-.016-2.636,0-5.273c.006-.931.409-1.383,1.334-1.39q4.54-.037,9.081,0c.935.007,1.344.45,1.351,1.375q.026,2.678,0,5.357c-.007.97-.431,1.375-1.418,1.383q-.927.008-1.853.007C7400.743,2304.359,7399.861,2304.355,7398.979,2304.355Zm-3.446-2.437h6.925v-3.247h-6.925Zm-34.484-1.778c-.976-.01-1.536-.463-1.521-1.2s.573-1.172,1.562-1.176q3.39-.011,6.783,0c1.037,0,1.621.455,1.606,1.219-.013.731-.571,1.153-1.563,1.161-1.131.007-2.262,0-3.391,0l-2.14,0Q7361.717,2300.145,7361.049,2300.14Zm57.329,0c-1.187,0-2.374.011-3.56,0-.855-.011-1.385-.461-1.405-1.146-.021-.719.532-1.22,1.426-1.226q3.563-.022,7.122,0c.858.006,1.381.469,1.4,1.161.024.72-.522,1.2-1.422,1.213q-.656.007-1.312.006C7419.877,2300.145,7419.127,2300.14,7418.377,2300.14Zm-57.465-5.3c-.84-.009-1.377-.474-1.385-1.163a1.229,1.229,0,0,1,1.355-1.209q3.6-.025,7.21,0a1.229,1.229,0,0,1,1.384,1.179c.011.72-.539,1.187-1.44,1.194-1.187.011-2.375,0-3.562,0l-1.979,0C7361.968,2294.846,7361.44,2294.844,7360.913,2294.837Zm57.472.006c-1.187,0-2.375.007-3.562,0-.853-.009-1.386-.453-1.411-1.14-.024-.719.532-1.23,1.418-1.235q3.56-.019,7.124,0c.881.008,1.439.526,1.409,1.243-.028.683-.563,1.123-1.417,1.133q-.762.007-1.526.006Zm-23.9-1.687c-.948-.01-1.349-.4-1.356-1.34q-.025-2.678,0-5.357c.008-.946.405-1.362,1.333-1.368q4.54-.019,9.078,0c.944,0,1.349.405,1.356,1.344q.026,2.676,0,5.355c-.009.985-.4,1.36-1.416,1.368-1.5.011-3,0-4.5,0-.9,0-1.8,0-2.7,0Q7395.386,2293.164,7394.486,2293.156Zm1.069-2.418h6.893v-3.206h-6.893Zm-11.724,2.422c-1.47,0-2.94.009-4.413,0-1.051-.009-1.42-.381-1.428-1.442q-.014-2.595,0-5.187c.007-1.052.386-1.435,1.435-1.438q4.456-.014,8.91,0c1.04,0,1.424.4,1.429,1.446q.014,2.592,0,5.185c-.005,1.049-.386,1.429-1.437,1.437q-.844.006-1.687.006C7385.7,2293.164,7384.768,2293.16,7383.832,2293.16Zm-3.4-2.411h6.907v-3.206h-6.907Zm-19.5-1.2c-.839-.009-1.381-.468-1.4-1.153-.019-.717.539-1.219,1.426-1.222q3.56-.017,7.122,0c.851.006,1.379.47,1.4,1.164.022.72-.532,1.2-1.422,1.211-1.188.011-2.375,0-3.564,0-.7,0-1.4,0-2.094,0Q7361.661,2289.56,7360.927,2289.553Zm57.444,0c-1.159,0-2.317.006-3.478,0-.912-.008-1.461-.446-1.478-1.159s.535-1.215,1.425-1.219q3.563-.017,7.124,0a1.237,1.237,0,0,1,1.4,1.168c.021.715-.538,1.2-1.428,1.207q-.762.007-1.526.006Zm-38.984-7.542c-.972-.006-1.387-.44-1.394-1.418q-.02-2.637,0-5.273c.009-1.015.429-1.42,1.467-1.427,1.5-.011,3,0,4.5,0,1.444,0,2.889-.01,4.329,0,1.073.008,1.476.416,1.483,1.5.007,1.729.009,3.459,0,5.189-.005.98-.418,1.424-1.38,1.431q-2.183.012-4.367.012Q7381.7,2282.027,7379.387,2282.015Zm1.026-2.427h6.925v-3.241h-6.925Zm14.179,2.429c-1.037,0-1.457-.422-1.465-1.433q-.016-2.636,0-5.273c.008-.974.428-1.4,1.394-1.413,1.5-.017,3,0,4.5,0,1.442,0,2.885-.006,4.327,0,1.142.006,1.546.394,1.552,1.513q.017,2.55,0,5.1c-.006,1.084-.409,1.5-1.479,1.508q-2.206.01-4.413.01T7394.592,2282.017Zm.967-2.433h6.92v-3.256h-6.92Z" transform="translate(-7347.944 -2262.996)" fill="url(#linear-gradient)"/>
</svg>
