<svg xmlns="http://www.w3.org/2000/svg" xmlns:xlink="http://www.w3.org/1999/xlink" width="50" height="50" viewBox="0 0 75.011 75.004">
  <defs>
    <linearGradient id="linear-gradient" y1="1" x2="1" gradientUnits="objectBoundingBox">
      <stop offset="0" stop-color="#35a052"/>
      <stop offset="1" stop-color="#2899d2"/>
    </linearGradient>
  </defs>
  <path id="Icon_1" data-name="Icon 1" d="M7028.07,2162.928h-59.216c-1.584,0-1.877-.3-1.877-1.907q0-3.027,0-6.053c0-1.358.35-1.715,1.681-1.723.223,0,.445,0,.742,0,0-1.872,0-3.68,0-5.49,0-1.439.335-1.771,1.784-1.773.981,0,1.965,0,3.063,0v-.9c0-6.152-.127-12.31.028-18.46.261-10.284,5.082-17.812,14.43-22.118,13.724-6.32,30.087,1.923,33.361,16.68a28.35,28.35,0,0,1,.618,5.771c.076,6.027.027,12.055.027,18.083v.947c1.164,0,2.242-.005,3.321,0s1.521.422,1.524,1.5c.007,1.887,0,3.775,0,5.762.417,0,.786-.014,1.153,0a1.177,1.177,0,0,1,1.259,1.222q.032,3.634,0,7.263a1.175,1.175,0,0,1-1.217,1.192c-.09.006-.181.007-.272.007C7028.344,2162.932,7028.207,2162.928,7028.07,2162.928Zm-58.633-2.47H7027.5V2155.7h-58.063Zm2.426-7.259h53.219v-4.768h-53.219Zm22.542-47.994a21.758,21.758,0,0,0-17.734,21.58q-.016,9.193,0,18.387v.772h43.619v-.645c0-6.23.014-12.459-.014-18.689a23.891,23.891,0,0,0-.281-3.461,21.852,21.852,0,0,0-21.462-18.354A20.956,20.956,0,0,0,6994.405,2105.2Zm32.885,21.366a.91.91,0,0,1-.91-.911v-.53a.909.909,0,0,1,.91-.909h7.791a.911.911,0,0,1,.91.909v.53a.911.911,0,0,1-.91.911Zm-65.4,0a.915.915,0,0,1-.915-.915v-.5a.915.915,0,0,1,.915-.915h7.77a.915.915,0,0,1,.915.915v.5a.915.915,0,0,1-.915.915Zm51.941-2.093c-1.065-5.474-3.694-9.479-7.812-11.9a15.308,15.308,0,0,0-6-2.048,1.415,1.415,0,0,1,.182-2.823,17.809,17.809,0,0,1,7.128,2.361c3.382,1.957,7.738,5.951,9.279,13.874a1.412,1.412,0,0,1-1.118,1.658,1.453,1.453,0,0,1-.272.027A1.418,1.418,0,0,1,7013.834,2124.478Zm5.365-19.565-.189-.191a.914.914,0,0,1,0-1.291q2.344-2.347,4.7-4.7a.913.913,0,0,1,1.3,0l.192.193a.915.915,0,0,1,0,1.287l-4.7,4.7a.916.916,0,0,1-1.3,0Zm-42.718-.083-4.676-4.672a.916.916,0,0,1,.037-1.328l.014-.012a.915.915,0,0,1,1.256.033c1.524,1.522,3.092,3.088,4.677,4.669a.914.914,0,0,1-.016,1.31l-.018.018a.92.92,0,0,1-.631.25A.9.9,0,0,1,6976.481,2104.83Zm21.74-8.523a.914.914,0,0,1-.915-.915v-6.551a.914.914,0,0,1,.915-.913h.5a.914.914,0,0,1,.915.913v6.551a.914.914,0,0,1-.915.915Z" transform="translate(-6960.979 -2087.927)" fill="url(#linear-gradient)"/>
</svg>
