<svg xmlns="http://www.w3.org/2000/svg" xmlns:xlink="http://www.w3.org/1999/xlink" width="50" height="50" viewBox="0 0 76.835 77.83">
  <defs>
    <linearGradient id="linear-gradient" y1="0.994" x2="1" y2="0.006" gradientUnits="objectBoundingBox">
      <stop offset="0" stop-color="#35a052"/>
      <stop offset="1" stop-color="#2899d2"/>
    </linearGradient>
  </defs>
  <path id="Shape_6" data-name="Shape 6" d="M7773.359,2305.432c-2.063.876-4.017,1.687-5.949,2.55a.965.965,0,0,0-.433.722c-.039,1.529-.012,3.058-.022,4.587-.008,1.391-.507,1.889-1.878,1.891q-5.688,0-11.379,0c-1.381,0-1.861-.489-1.864-1.889,0-1.529-.018-3.059.011-4.587.01-.467-.156-.642-.584-.8-1.321-.5-2.625-1.048-3.914-1.63a.679.679,0,0,0-.913.166c-1.1,1.122-2.228,2.224-3.354,3.323a1.525,1.525,0,0,1-2.493-.024q-4.09-4.095-8.17-8.2a1.592,1.592,0,0,1,.029-2.625c1.2-1.207,2.406-2.4,3.568-3.561-.65-1.667-1.263-3.273-1.919-4.861-.061-.146-.4-.247-.607-.25-1.541-.021-3.085-.007-4.627-.012-1.3,0-1.864-.552-1.866-1.853q-.011-5.81,0-11.619c0-1.26.562-1.8,1.82-1.811,1.569-.006,3.138-.016,4.707.008.4.006.555-.147.693-.5.521-1.35,1.059-2.694,1.646-4.014a.67.67,0,0,0-.15-.911c-1.111-1.077-2.2-2.184-3.282-3.287a1.6,1.6,0,0,1,0-2.63q4.044-4.087,8.1-8.162a1.579,1.579,0,0,1,2.617-.019c1.083,1.07,2.167,2.14,3.223,3.238a.761.761,0,0,0,1.037.2c1.234-.574,2.491-1.111,3.77-1.581a.8.8,0,0,0,.635-.927c-.031-1.528-.018-3.058-.008-4.587.008-1.253.511-1.785,1.741-1.788q5.843-.018,11.684,0c1.251,0,1.765.559,1.771,1.854.008,1.529.022,3.059-.008,4.586-.012.5.167.68.623.851,1.3.486,2.576,1.036,3.842,1.608a.669.669,0,0,0,.914-.145c1.071-1.119,2.17-2.21,3.267-3.3.925-.925,1.63-.938,2.542-.024q4.084,4.1,8.154,8.216a1.606,1.606,0,0,1-.027,2.632c-1.194,1.21-2.4,2.412-3.563,3.585.637,1.639,1.249,3.245,1.9,4.833.062.15.393.26.6.263,1.567.022,3.135.006,4.7.014,1.21.006,1.786.562,1.79,1.764q.014,5.885,0,11.772c0,1.21-.569,1.762-1.781,1.768-1.542.01-3.084.016-4.627,0a.728.728,0,0,0-.827.543c-.658,1.649-1.369,3.277-2.108,4.89a.659.659,0,0,0,.13.91c2.469,2.449,4.914,4.923,7.383,7.371a1.5,1.5,0,0,0,.78.38c2.146.345,4.292.691,6.445.972a4.6,4.6,0,0,1,2.813,1.514,14.962,14.962,0,0,1,3.5,7.173,11.893,11.893,0,0,1-.3,6.919,6.675,6.675,0,0,1-.553,1.169,1.478,1.478,0,0,1-2.649,0c-.963-1.524-1.886-3.075-2.877-4.581-1.054-1.6-2.056-1.808-3.733-.849a3.652,3.652,0,0,0-2.182,2.742,2.765,2.765,0,0,0,.306,1.511c.769,1.432,1.63,2.814,2.448,4.219.857,1.471.231,2.474-1.429,2.63a6.466,6.466,0,0,1-5.375-1.8c-1.472-1.391-3.093-2.619-4.625-3.948a3.464,3.464,0,0,1-1.21-2.906c.055-1.754-.042-3.514-.106-5.271a1.312,1.312,0,0,0-.29-.811c-2.487-2.539-5-5.055-7.5-7.576C7773.323,2305.392,7773.249,2305.363,7773.359,2305.432Zm-9.56-9.515.212-.286c-.6-.505-1.191-1.021-1.808-1.507a1.116,1.116,0,0,0-.606-.225c-1.818-.073-3.643-.231-5.456-.144a3.2,3.2,0,0,1-2.8-1.166c-1.347-1.586-2.6-3.255-4-4.788a6.443,6.443,0,0,1-1.729-5.214c.15-1.728,1.163-2.4,2.635-1.523,1.372.813,2.759,1.6,4.1,2.464a2.207,2.207,0,0,0,2.689-.072,6.792,6.792,0,0,0,1.61-1.787c1.022-1.614.782-2.686-.8-3.753-1.471-.988-2.984-1.912-4.485-2.853a1.53,1.53,0,0,1,.069-2.829,8.079,8.079,0,0,1,1.18-.512,11.807,11.807,0,0,1,6.431-.3,15.508,15.508,0,0,1,6.777,3.07,5.137,5.137,0,0,1,2.089,3.174c.282,1.862.644,3.723.752,5.6.089,1.577,1.038,2.43,2.122,3.393a14.015,14.015,0,0,0-2.348-12.644,27.274,27.274,0,0,0-2.13-2.273,1.486,1.486,0,0,1-.143-2.067,1.467,1.467,0,0,1,2.1-.181c.141.106.272.228.4.346a17.073,17.073,0,0,1,4.683,18.468,1.03,1.03,0,0,0,.3,1.31c.823.753,1.6,1.563,2.367,2.371.605.635,1.179,1.3,1.765,1.955l.351-.091c.621-1.681,1.283-3.348,1.85-5.048.436-1.3.749-1.608,2.091-1.61,1.536,0,3.07,0,4.61,0v-9.232c-1.631,0-3.2.007-4.767,0-1.146-.006-1.492-.377-1.9-1.467-.708-1.9-1.466-3.785-2.307-5.629-.55-1.206-.579-1.621.365-2.562,1.112-1.1,2.238-2.19,3.278-3.2l-6.582-6.64c-1.1,1.126-2.25,2.309-3.416,3.474a1.469,1.469,0,0,1-2.052.287,24.844,24.844,0,0,0-6.067-2.539,1.478,1.478,0,0,1-1.254-1.652c-.012-.867,0-1.733,0-2.6v-2.4h-9.159c0,1.617,0,3.169,0,4.72-.005,1.274-.344,1.6-1.506,2.036-1.885.708-3.753,1.479-5.578,2.332-1.206.563-1.608.593-2.545-.352-1.1-1.111-2.2-2.225-3.186-3.219-2.21,2.2-4.356,4.344-6.56,6.543,1.071,1.065,2.19,2.168,3.3,3.284a1.691,1.691,0,0,1,.357,2.32q-1.287,2.919-2.419,5.907c-.361.943-.752,1.348-1.757,1.36-1.367.015-2.731,0-4.1.006-.264,0-.528.023-.773.034v9.2c1.619,0,3.184,0,4.75,0,1.15,0,1.5.37,1.9,1.458.71,1.9,1.469,3.784,2.324,5.619.6,1.282.63,1.7-.36,2.694-1.083,1.092-2.169,2.181-3.159,3.174,2.193,2.231,4.318,4.395,6.476,6.588,1.11-1.124,2.247-2.284,3.4-3.431a1.538,1.538,0,0,1,2.121-.306,24.268,24.268,0,0,0,5.947,2.435,1.529,1.529,0,0,1,1.319,1.764c.008,1.4,0,2.8,0,4.205,0,.242.027.485.043.731h9.175c0-1.691-.005-3.321,0-4.95a1.554,1.554,0,0,1,1.276-1.731c.265-.083.544-.128.8-.23,1.655-.658,3.305-1.328,5.027-2.022-1.585-1.618-3.016-3.058-4.419-4.524a.8.8,0,0,0-1.046-.208,16.25,16.25,0,0,1-9.672.861,17.116,17.116,0,0,1,3.2-33.85,1.507,1.507,0,0,1,1.7,1.449c.032.926-.6,1.517-1.66,1.582-.68.041-1.364.076-2.037.171a14.1,14.1,0,0,0,.854,27.923A12.348,12.348,0,0,0,7763.8,2295.917Zm37.074,21.464c-.053-.649-.066-1.3-.165-1.943a13.031,13.031,0,0,0-2.523-6.135,2.9,2.9,0,0,0-2.038-1.166q-3.272-.4-6.526-.928a2.538,2.538,0,0,1-1.318-.629q-9.9-9.863-19.738-19.781a2.3,2.3,0,0,1-.608-1.18c-.351-2.212-.666-4.43-.93-6.653a2.932,2.932,0,0,0-1.124-2.066,12.647,12.647,0,0,0-5.264-2.408c-.892-.2-1.814-.253-2.724-.373-.017.065-.035.13-.052.195.694.485,1.414.937,2.078,1.461a5.005,5.005,0,0,1,2.225,4.587,7.418,7.418,0,0,1-3.325,5.5,5.14,5.14,0,0,1-6.046.23c-.482-.3-.979-.579-1.47-.866a1.421,1.421,0,0,0,.322.683c1.176,1.433,2.366,2.854,3.53,4.3a1.377,1.377,0,0,0,1.165.534c2.047.046,4.1.109,6.137.25a2.352,2.352,0,0,1,1.384.63q9.828,9.821,19.59,19.714a2.8,2.8,0,0,1,.681,1.608,42.938,42.938,0,0,1,.2,4.959,3.181,3.181,0,0,0,1.358,2.908c1.4,1.053,2.716,2.226,4.067,3.348.054-.044.111-.086.166-.13-1.1-1.677-2.165-3.358-1.64-5.51a7.034,7.034,0,0,1,3.6-4.5,5.7,5.7,0,0,1,4.126-.884C7798.4,2313.635,7799.5,2315.569,7800.874,2317.381Z" transform="translate(-7726.986 -2249.966)" fill="url(#linear-gradient)"/>
</svg>
