<svg xmlns="http://www.w3.org/2000/svg" xmlns:xlink="http://www.w3.org/1999/xlink" width="50" height="50" viewBox="0 0 75.979 77.997">
  <defs>
    <linearGradient id="linear-gradient" y1="0.987" x2="1" y2="0.013" gradientUnits="objectBoundingBox">
      <stop offset="0" stop-color="#35a052"/>
      <stop offset="1" stop-color="#2899d2"/>
    </linearGradient>
  </defs>
  <path id="Shape_4" data-name="Shape 4" d="M7735.314,2168.995a4.964,4.964,0,0,1-5.327-5.278q0-18.581-.006-37.163a5.107,5.107,0,0,1,2.553-4.709.912.912,0,0,0,.341-.656c.125-2.931,1.514-4.263,4.486-4.265h2.161c.141-1.364.282-2.688.415-4.014.421-4.269.819-8.537,1.266-12.8a3.576,3.576,0,0,1,4.091-3.3c3.277.282,6.551.633,9.824.954,2.335.231,4.67.468,7.006.7.909.088,1.418.523,1.369,1.207-.049.725-.658,1.1-1.579,1.007q-8.3-.817-16.6-1.616c-1.287-.124-1.761.243-1.891,1.491-.457,4.418-.891,8.835-1.332,13.253q-.365,3.635-.717,7.266c1.162.427,1.385.286,1.5-.868q.6-6.135,1.218-12.271a2.662,2.662,0,0,1,1.738-2.388,6.384,6.384,0,0,0,2.987-2.4,2.688,2.688,0,0,1,2.7-1.217c2.69.278,5.381.529,8.071.793.9.09,1.4.57,1.311,1.252s-.633,1.03-1.558.938c-2.59-.251-5.18-.5-7.768-.77a1,1,0,0,0-1.083.482,7.519,7.519,0,0,1-3.375,2.772,1.224,1.224,0,0,0-.846,1.181c-.4,4.167-.811,8.332-1.229,12.6.276.02.541.055.8.055.431,0,.864,0,1.3,0,.844-.006,1.688-.012,2.531.02a1.336,1.336,0,0,0,1.3-.686q9.286-13.6,18.593-27.186a5.3,5.3,0,0,1,2.852-2.371h1.379c1.618,1,3.273,1.939,4.851,3q9.412,6.33,18.785,12.72c2.315,1.571,2.682,3.491,1.113,5.785q-1.422,2.075-2.841,4.153a.869.869,0,0,0-.053.209c.449.045.891.063,1.326.135a3.635,3.635,0,0,1,3.156,3.642,2.8,2.8,0,0,0,.9,2.325,4.44,4.44,0,0,1,1.248,3.409c-.006,3.123,0,6.245,0,9.366v.946c.414,0,.784-.01,1.156,0a2.448,2.448,0,0,1,2.514,2.441q.038,5.977,0,11.956a2.429,2.429,0,0,1-2.286,2.423c-.427.043-.862.008-1.383.008v.893q0,4.646,0,9.292a4.976,4.976,0,0,1-5.321,5.287h-61.637Zm61.43-2.235a8.433,8.433,0,0,0,.917-.031,2.51,2.51,0,0,0,2.272-2.053c.122-1.2.03-2.417.03-3.714h-1.007q-26.379,0-52.759,0a6.439,6.439,0,0,1-.993-.033,1.083,1.083,0,0,1-.01-2.133,5.508,5.508,0,0,1,.919-.03q26.415,0,52.833,0h1.027v-5.217h-.94c-1.026,0-2.051,0-3.078,0-2.114.006-4.229.012-6.341-.012a8.419,8.419,0,1,1-.464-16.832c2.215-.03,4.431-.026,6.649-.02q1.575,0,3.152,0h1.023v-5.158h-67.687v27.23h.8c1.634,0,3.266-.006,4.9,0,.89,0,1.352.386,1.356,1.089s-.455,1.1-1.342,1.1c-1.636.01-3.27,0-4.9,0h-.829c0,1.261-.061,2.4.02,3.538a2.555,2.555,0,0,0,2.2,2.218,7.321,7.321,0,0,0,.993.043Q7766.113,2166.762,7796.744,2166.759Zm6.02-15.419c.709.014.97-.161.962-.917q-.056-5.325,0-10.651c.008-.725-.241-.889-.923-.885-2.578.014-5.154.014-7.732.014q-2.635,0-5.271.006a8.114,8.114,0,0,0-1.746.161,6.194,6.194,0,0,0,1.322,12.248c2.218.03,4.438.006,6.655.006v0c1.242,0,2.483-.008,3.725-.008C7800.758,2151.316,7801.76,2151.321,7802.764,2151.34Zm-68-27.879a2.619,2.619,0,0,0-2.466,2.219c-.094,1.152-.02,2.32-.02,3.521h67.742c0-.854,0-1.661,0-2.469,0-2.31-.979-3.279-3.3-3.279h-61.185c-.139,0-.278,0-.418,0C7735,2123.449,7734.879,2123.452,7734.763,2123.461Zm37.008-29.343q-9.071,13.235-18.141,26.472c-.118.172-.209.359-.323.556a1.9,1.9,0,0,0,2.349-.952c1.318-2.11,2.79-4.126,4.2-6.181q4.458-6.509,8.914-13.02a2.72,2.72,0,0,1,2.7-1.375,6.6,6.6,0,0,0,3.854-.7,2.665,2.665,0,0,1,2.89.19q5.786,3.92,11.57,7.842a2.951,2.951,0,0,1,1.261,2.678,8.212,8.212,0,0,0,.553,3.24,3.447,3.447,0,0,1-.364,3.889c-1.048,1.395-1.987,2.87-3.017,4.376a1.907,1.907,0,0,0,2.355-.887c2.016-3.083,4.143-6.094,6.222-9.135.719-1.056.6-1.728-.439-2.435q-11.093-7.523-22.192-15.04a2.008,2.008,0,0,0-1.091-.418C7772.591,2093.222,7772.185,2093.518,7771.771,2094.118Zm3.031,18.907c4.067,1.132,6.251,3.969,6.894,8.2,1.166,0,2.31.021,3.452-.018a.925.925,0,0,0,.572-.407c1.307-1.879,2.607-3.761,3.867-5.669a1.118,1.118,0,0,0,.077-.94,8.4,8.4,0,0,1-.874-4.576.967.967,0,0,0-.51-1q-5.544-3.732-11.066-7.5a1.021,1.021,0,0,0-1.185-.078,7.681,7.681,0,0,1-4.3.8,1.177,1.177,0,0,0-1.254.6q-6.179,9.077-12.4,18.125c-.124.178-.222.374-.39.664,1.81,0,3.515.016,5.217-.029.159,0,.41-.388.443-.621a9.208,9.208,0,0,1,9.046-7.88A8.949,8.949,0,0,1,7774.8,2113.025Zm-37.894,6.146c-1.273.016-1.822.627-1.726,2.053,1.205,0,2.369.016,3.53-.018a.6.6,0,0,0,.423-.382c.092-.515.107-1.042.161-1.653-.55,0-1.082,0-1.606,0C7737.429,2119.167,7737.168,2119.168,7736.909,2119.17Zm56.932.208c-.4.572-.786,1.15-1.246,1.828h5.282c.088-1.011-.151-1.718-.866-1.855a18.863,18.863,0,0,0-2.946-.155h0C7793.987,2119.2,7793.893,2119.3,7793.84,2119.378Zm-21.632-4.453c-3.456.1-6.722,3.178-6.594,6.263h13.706c-.033-3.367-3.292-6.266-6.921-6.266Zm17.457,34.7a4.558,4.558,0,0,1-4.531-4.519,4.512,4.512,0,0,1,4.539-4.484,4.466,4.466,0,0,1,4.512,4.494,4.522,4.522,0,0,1-4.509,4.51Zm-2.274-4.582a2.26,2.26,0,0,0,2.214,2.335,2.3,2.3,0,0,0,2.368-2.2,2.349,2.349,0,0,0-2.235-2.355l-.085,0A2.3,2.3,0,0,0,7787.391,2145.045Z" transform="translate(-7729.981 -2090.999)" fill="url(#linear-gradient)"/>
</svg>
