<svg xmlns="http://www.w3.org/2000/svg" xmlns:xlink="http://www.w3.org/1999/xlink" width="50" height="50" viewBox="0 0 78.113 77.767">
  <defs>
    <linearGradient id="linear-gradient" x1="0.002" y1="1" x2="0.998" gradientUnits="objectBoundingBox">
      <stop offset="0" stop-color="#35a052"/>
      <stop offset="1" stop-color="#2899d2"/>
    </linearGradient>
  </defs>
  <path id="Shape_5" data-name="Shape 5" d="M7363.526,2172.995a3.248,3.248,0,0,0-.431-.131,11.619,11.619,0,0,1-9.723-8.667c-.164-.548-.253-1.121-.377-1.681v-2.583c.124-.535.239-1.076.377-1.61a12.1,12.1,0,0,1,3.328-5.61q11.37-11.289,22.724-22.595a15.3,15.3,0,0,0,4.459-8.207,24.288,24.288,0,0,0,.341-3.695,23.209,23.209,0,0,1,17.15-22.108,22.254,22.254,0,0,1,9.818-.586,3.591,3.591,0,0,1,2.146,5.905c-.4.457-.845.875-1.277,1.3-3.9,3.883-7.793,7.78-11.717,11.641a2.73,2.73,0,0,0-.7,3.359c.726,1.669,1.4,3.361,2.068,5.053a2.9,2.9,0,0,0,1.71,1.719c1.746.688,3.486,1.4,5.221,2.117a2.64,2.64,0,0,0,3.186-.662c1.164-1.2,2.365-2.371,3.557-3.546.683-.675,1.345-.737,1.857-.194.485.509.411,1.149-.233,1.794-1.255,1.257-2.5,2.524-3.781,3.755a4.616,4.616,0,0,1-5.2,1.044c-1.893-.733-3.766-1.516-5.644-2.283a4.78,4.78,0,0,1-2.712-2.725c-.746-1.826-1.516-3.641-2.244-5.473a4.625,4.625,0,0,1,1.108-5.364q6.228-6.205,12.463-12.4c.127-.125.248-.255.381-.375a1.4,1.4,0,0,0,.487-1.569,1.357,1.357,0,0,0-1.369-.91,40.168,40.168,0,0,0-5.7.026,20.824,20.824,0,0,0-17.62,15.71,29.012,29.012,0,0,0-.664,5.706,18.154,18.154,0,0,1-5.564,12.672c-1.809,1.778-3.6,3.576-5.4,5.364q-8.659,8.617-17.318,17.236a9.43,9.43,0,0,0,4.478,16.033,9.171,9.171,0,0,0,8.146-1.943,14.288,14.288,0,0,0,1.111-1.041c7.34-7.3,14.715-14.563,22-21.916a19.25,19.25,0,0,1,13.813-5.905c8.708-.211,15.082-4.312,19.008-12.036a20.038,20.038,0,0,0,1.882-11.816,1.463,1.463,0,0,0-.908-1.376,1.479,1.479,0,0,0-1.636.511c-1.533,1.55-3.087,3.083-4.635,4.622-.162.16-.319.328-.492.476a1.167,1.167,0,0,1-1.591.019,1.115,1.115,0,0,1,0-1.63c1.841-1.854,3.641-3.758,5.583-5.5a3.539,3.539,0,0,1,5.847,2.169,23.432,23.432,0,0,1-23.314,26.877,16.014,16.014,0,0,0-11.658,4.941c-7.384,7.4-14.824,14.74-22.214,22.134a12.435,12.435,0,0,1-7.337,3.844.627.627,0,0,0-.2.108Zm-3.814-11.745a5.086,5.086,0,1,1,5.092,5.062h-.01A5.07,5.07,0,0,1,7359.711,2161.25Zm5.064-2.781a2.806,2.806,0,1,0,.02,0Zm9.111-1.675a4.755,4.755,0,0,1-4.168-2.983,4.8,4.8,0,0,1,.761-5.323,13.618,13.618,0,0,1,1.278-1.3,1.137,1.137,0,0,1,1.638-.022,1.1,1.1,0,0,1-.036,1.626c-.285.323-.61.612-.908.921a2.784,2.784,0,1,0,3.941,3.926q6.275-6.208,12.523-12.446c.737-.733,1.481-1.46,2.21-2.2a2.791,2.791,0,1,0-3.945-3.934q-4.786,4.74-9.549,9.5c-.884.876-1.507,1-2.076.4-.522-.544-.378-1.2.446-2.014,3.182-3.165,6.351-6.349,9.554-9.494a5.077,5.077,0,0,1,8.1.865,4.973,4.973,0,0,1-.474,5.8c-.427.5-.91.955-1.375,1.421q-6.824,6.793-13.646,13.584a5.438,5.438,0,0,1-4.162,1.67Z" transform="translate(-7352.995 -2095.228)" fill="url(#linear-gradient)"/>
</svg>
