<svg xmlns="http://www.w3.org/2000/svg" xmlns:xlink="http://www.w3.org/1999/xlink" width="50" height="50" viewBox="0 0 68.004 64.975">
  <defs>
    <linearGradient id="linear-gradient" x1="0.022" y1="1" x2="0.978" gradientUnits="objectBoundingBox">
      <stop offset="0" stop-color="#35a052"/>
      <stop offset="1" stop-color="#2899d2"/>
    </linearGradient>
  </defs>
  <path id="Shape_10" data-name="Shape 10" d="M6965.912,2318.252v-24.174a5.078,5.078,0,0,1,2.246-2.66c3.541-2.434,7.013-4.971,10.537-7.43a10.916,10.916,0,0,1,1.954-.833v-.6c0-4.918.016-9.836-.011-14.754a3.932,3.932,0,0,1,1.943-3.527c3.571-2.431,7.077-4.957,10.592-7.472a3.867,3.867,0,0,1,2.33-.807q10.621.01,21.244.007a3.347,3.347,0,0,1,3.559,3.483q.04,10.748-.018,21.5a10.507,10.507,0,0,1-.589,2.367h.54q4.946,0,9.891,0a3.439,3.439,0,0,1,3.778,3.81c0,6.966-.009,13.932.009,20.9a3.964,3.964,0,0,1-1.216,2.985q-4.337,4.321-8.636,8.687a3.91,3.91,0,0,1-2.965,1.221q-11.418-.029-22.839,0a3.993,3.993,0,0,1-2.884-.89,4.182,4.182,0,0,1-3.111.89c-7.347-.018-14.692-.055-22.04.02h-.095C6968.062,2320.97,6966.622,2320.28,6965.912,2318.252Zm55.181.41c1.094,0,1.492-.385,1.492-1.479q0-11.052,0-22.1c0-1.091-.4-1.49-1.49-1.49q-11.552-.005-23.105,0c-1.091,0-1.485.4-1.485,1.49q-.008,11.05,0,22.1c0,1.107.38,1.478,1.481,1.478q5.777.005,11.554,0T7021.093,2318.662Zm-28.333,0c1.11,0,1.469-.355,1.471-1.474q.005-11.052,0-22.1c0-1.117-.366-1.493-1.467-1.493q-11.553-.005-23.108,0c-1.094,0-1.481.394-1.481,1.488q0,11.053,0,22.1c0,1.1.378,1.479,1.478,1.479q5.775.005,11.554,0T6992.76,2318.662Zm38.317-31.085c-1.917,1.682-3.813,3.388-5.758,5.036a1.289,1.289,0,0,0-.549,1.614,3.08,3.08,0,0,1,.08,1.057q.005,9.747,0,19.49v.948c2.15-2.171,4.134-4.2,6.147-6.194a2.076,2.076,0,0,0,.657-1.591q-.026-10.046-.013-20.091v-.738C7031.378,2287.328,7031.226,2287.448,7031.078,2287.577Zm-10.053,3.739a5.516,5.516,0,0,1,1.5.221.74.74,0,0,0,.815-.173c1.553-1.388,3.123-2.756,4.687-4.133.556-.489,1.107-.983,1.748-1.553-.242-.025-.344-.046-.447-.046-3.916,0-7.829-.009-11.741.016a1.264,1.264,0,0,0-.786.364c-1.285,1.255-2.541,2.542-3.81,3.811-.448.447-.909.879-1.365,1.319.027.055.055.111.083.166h.7l4.5,0Q7018.964,2291.3,7021.024,2291.316Zm-13.633-.009c1.257,0,1.573-.316,1.573-1.569v-21.9c0-1.264-.314-1.582-1.564-1.582q-11.452,0-22.908,0c-1.248,0-1.58.335-1.58,1.573q0,10.949,0,21.9c0,1.243.33,1.576,1.571,1.576q5.711.005,11.421,0Q7001.65,2291.307,7007.391,2291.307Zm-35.005-.053h8.292v-5.562c-.069-.05-.136-.1-.2-.152Zm45.071-31.018c-1.931,1.7-3.852,3.414-5.8,5.094-.468.4-.826.72-.5,1.421a3.005,3.005,0,0,1,.073,1.19q.005,9.779,0,19.559v.835c.283-.263.445-.406.6-.56,1.831-1.841,3.646-3.7,5.5-5.518a2.274,2.274,0,0,0,.732-1.765q-.026-9.946-.01-19.895v-.824C7017.764,2259.995,7017.6,2260.109,7017.457,2260.237Zm-10,3.742c.5.005,1,.15,1.5.18a1.153,1.153,0,0,0,.738-.15c.923-.761,1.811-1.564,2.708-2.353l3.831-3.381c-3.107,0-6-.007-8.888.012a1.2,1.2,0,0,0-.636.288q-3.175,2.462-6.333,4.948c-.127.1-.239.224-.473.447h.789c1.214,0,2.427,0,3.641,0Q7005.9,2263.967,7007.46,2263.979Zm-14.514.023a6.782,6.782,0,0,0,5.679-1.944c1.421-1.342,3.063-2.448,4.606-3.658-.021-.042-.044-.085-.065-.125h-7.157a3.038,3.038,0,0,0-.595.009,2.012,2.012,0,0,0-.731.252c-1.991,1.4-3.972,2.814-5.954,4.226-.5.353-.994.706-1.636,1.165.4.019.607.041.819.041.521,0,1.045-.012,1.567-.025s1.027-.024,1.54-.024C6991.664,2263.92,6992.307,2263.939,6992.946,2264Zm-20.267,52.377a2.228,2.228,0,0,1-2.229-2.187c-.037-.819-.041-1.645,0-2.464a2.238,2.238,0,0,1,2.252-2.163c.75-.016,1.5,0,2.252,0,.258,0,.515,0,.773,0,.516,0,1.031-.005,1.546.009a2.193,2.193,0,0,1,2.214,2.184c.034.821.035,1.645,0,2.464a2.2,2.2,0,0,1-2.235,2.166q-1.119.015-2.239.016Q6973.845,2316.4,6972.679,2316.379Zm.063-2.3h4.439v-2.189h-4.439Zm43.083,2.3a1.113,1.113,0,0,1-1.174-1.1,1.139,1.139,0,0,1,1.184-1.165c.044,0,.088,0,.134,0q.762,0,1.525,0c.554,0,1.108-.02,1.659.005a1.13,1.13,0,1,1-.01,2.26q-.829.016-1.659.016T7015.826,2316.381Zm-14.754,0a2.2,2.2,0,0,1-2.272-2.132,19.7,19.7,0,0,1,0-2.6,2.178,2.178,0,0,1,2.239-2.088q2.253-.029,4.506,0a2.232,2.232,0,0,1,2.292,2.193,23.092,23.092,0,0,1,0,2.4,2.255,2.255,0,0,1-2.33,2.229c-.728.012-1.458,0-2.187,0-.478,0-.956.005-1.434.005C7001.617,2316.392,7001.344,2316.39,7001.071,2316.385Zm.018-2.3h4.445v-2.189h-4.445Zm-13.617,2.3a1.131,1.131,0,1,1-.007-2.261c1.126-.021,2.258-.025,3.384,0a1.087,1.087,0,0,1,1.108,1.158,1.109,1.109,0,0,1-1.1,1.1c-.044,0-.088,0-.132,0h-1.592c-.185,0-.369,0-.554,0-.165,0-.33,0-.495,0C6987.878,2316.392,6987.675,2316.389,6987.472,2316.381Zm-.072-4.56a1.128,1.128,0,0,1,.07-2.254c.554-.02,1.109,0,1.66,0,.19,0,.383,0,.574,0,.385,0,.768-.007,1.151.009a1.126,1.126,0,0,1,.062,2.249q-.888.029-1.779.029Q6988.268,2311.847,6987.4,2311.822Zm30.085.014c-.185,0-.371,0-.554,0-.369,0-.738.007-1.1-.007a1.134,1.134,0,0,1-1.174-1.177,1.112,1.112,0,0,1,1.188-1.087c1.082-.016,2.167-.014,3.25,0a1.134,1.134,0,0,1,1.215,1.135,1.152,1.152,0,0,1-1.229,1.131c-.2.007-.407.009-.611.009C7018.139,2311.841,7017.812,2311.836,7017.485,2311.836Zm-27.794-22.811c-.75,0-1.5.016-2.252,0a2.238,2.238,0,0,1-2.261-2.286c-.018-.756-.02-1.511,0-2.267a2.247,2.247,0,0,1,2.228-2.263c1.525-.03,3.049-.026,4.572,0a2.218,2.218,0,0,1,2.245,2.231c.025.8.027,1.6,0,2.4a2.2,2.2,0,0,1-2.212,2.187c-.29.008-.579.01-.869.01C6990.658,2289.031,6990.174,2289.025,6989.69,2289.025Zm-2.213-2.318h4.461v-2.178h-4.461Zm16.368,2.316c-.554,0-1.107.018-1.658,0a1.127,1.127,0,0,1-.034-2.252q1.721-.056,3.448,0a1.1,1.1,0,0,1,1.089,1.183,1.079,1.079,0,0,1-1.123,1.071c-.215.008-.43.01-.646.01C7004.563,2289.03,7004.2,2289.023,7003.845,2289.023Zm-1.66-4.558a1.128,1.128,0,0,1-.033-2.254c1.147-.033,2.3-.033,3.449,0a1.128,1.128,0,0,1-.032,2.256c-.576.021-1.151,0-1.725,0-.337,0-.675.007-1.011.007C7002.617,2284.476,7002.4,2284.473,7002.185,2284.465Z" transform="translate(-6965.912 -2255.995)" fill="url(#linear-gradient)"/>
</svg>
